<?xml version="1.0" encoding="utf-8"?>
<!-- Generator: Adobe Illustrator 24.1.2, SVG Export Plug-In . SVG Version: 6.00 Build 0)  -->
<svg version="1.1" id="Layer_1" xmlns="http://www.w3.org/2000/svg" xmlns:xlink="http://www.w3.org/1999/xlink" x="0px" y="0px"
	 viewBox="0 0 32 31" style="enable-background:new 0 0 32 31;" xml:space="preserve">
<style type="text/css">
	.st0{opacity:0.9;fill:#FFFFFF;enable-background:new    ;}
	.st1{opacity:0.161;fill:#FFFFFF;enable-background:new    ;}
	.st2{fill:#FFFFFF;}
</style>
<g>
	<path id="Rectangle_193" class="st1" d="M6,0h20c3.3,0,6,2.7,6,6v19c0,3.3-2.7,6-6,6H6c-3.3,0-6-2.7-6-6V6C0,2.7,2.7,0,6,0z"/>
	<path id="Path_324" class="st2" d="M15.4,13.5c0,0-0.6-3,1.9-3.6s3.1,0.8,3.1,0.8c0.3-0.1,0.6-0.2,0.8-0.4c0.3-0.2,0.8-0.7,0.8-0.7
		c0,0.4-0.1,0.8-0.3,1.1c-0.4,0.6-0.3,0.4-0.3,0.4l1-0.2c-0.2,0.4-0.5,0.8-0.8,1.1c-0.2,0.1-0.4,0.2-0.6,0.4c0,0,0.6,1.8-1.2,4.4
		s-3.1,4-6.2,4c-1.6,0.1-3.3-0.4-4.6-1.4c0.9,0.1,1.8,0,2.7-0.4c0.5-0.3,0.9-0.6,1.3-0.9c-0.7-0.1-1.4-0.3-2-0.8
		c-0.4-0.3-0.7-0.7-0.9-1.1c0.4,0.1,0.9,0.1,1.3,0c0.7-0.1,0.6-0.2,0.6-0.2s-0.7,0.2-1.8-0.8s-1.1-1.7-1.1-1.7s1,0.2,1.4,0.2
		c0.2,0,0.5,0,0.7,0c0,0-1.2-0.4-1.5-1.1c-0.2-0.5-0.3-1-0.2-1.5c0-0.4,0.2-0.8,0.3-1.1c0.5,0.6,1,1.2,1.6,1.7
		c0.9,0.8,1.9,0.7,2.7,1C14.7,13,15.1,13.3,15.4,13.5z"/>
</g>
</svg>
