<?xml version="1.0" encoding="utf-8"?>
<!-- Generator: Adobe Illustrator 24.2.1, SVG Export Plug-In . SVG Version: 6.00 Build 0)  -->
<svg version="1.1" id="Layer_1" xmlns="http://www.w3.org/2000/svg" xmlns:xlink="http://www.w3.org/1999/xlink" x="0px" y="0px"
	 viewBox="0 0 32 31" style="enable-background:new 0 0 32 31;" xml:space="preserve">
<style type="text/css">
	.st0{opacity:0.161;fill:#FFFFFF;enable-background:new    ;}
	.st1{enable-background:new    ;}
	.st2{fill:#FFFFFF;}
</style>
<g>
	<path id="Rectangle_195_1_" class="st0" d="M6,0h20c3.3,0,6,2.7,6,6v19c0,3.3-2.7,6-6,6H6c-3.3,0-6-2.7-6-6V6C0,2.7,2.7,0,6,0z"/>
	<g class="st1">
		<path class="st2" d="M20.3,17.4c0,0.1,0,0.5-0.1,1c-0.2,0.5-1,0.9-1.4,1c-0.7,0.1-1.2,0-2.5-0.5c-2.1-0.9-3.5-3.1-3.6-3.2
			s-0.9-1.1-0.9-2.2s0.5-1.6,0.7-1.8c0.2-0.2,0.4-0.3,0.6-0.3c0.1,0,0.3,0,0.4,0c0.1,0,0.3,0,0.5,0.4c0.2,0.4,0.6,1.5,0.7,1.6
			c0.1,0.1,0.1,0.2,0,0.4c-0.4,0.8-0.8,0.8-0.6,1.2c0.8,1.4,1.6,1.9,2.9,2.5c0.2,0.1,0.3,0.1,0.5-0.1c0.1-0.1,0.5-0.6,0.7-0.8
			c0.1-0.2,0.3-0.2,0.5-0.1c0.2,0.1,1.2,0.6,1.4,0.7C20.1,17.3,20.2,17.3,20.3,17.4z"/>
		<path class="st2" d="M22,9.4C20.4,7.8,18.3,7,16,7c-4.7,0-8.5,3.8-8.5,8.5c0,1.5,0.4,3,1.1,4.2L7.5,24l4.5-1.2c1.2,0.7,2.6,1,4,1
			c4.7,0,8.5-3.8,8.5-8.5C24.5,13.2,23.6,11,22,9.4z M16,22.5L16,22.5c-1.3,0-2.5-0.3-3.6-1l-0.3-0.2L9.5,22l0.7-2.6L10,19.2
			C9.3,18.1,9,16.8,9,15.4c0-3.9,3.2-7,7-7c1.9,0,3.6,0.7,5,2.1c1.3,1.3,2.1,3.1,2.1,5C23.1,19.3,19.9,22.5,16,22.5z"/>
	</g>
</g>
</svg>
