<?xml version="1.0" encoding="utf-8"?>
<!-- Generator: Adobe Illustrator 24.1.2, SVG Export Plug-In . SVG Version: 6.00 Build 0)  -->
<svg version="1.1" id="Layer_1" xmlns="http://www.w3.org/2000/svg" xmlns:xlink="http://www.w3.org/1999/xlink" x="0px" y="0px"
	 viewBox="0 0 32 31" style="enable-background:new 0 0 32 31;" xml:space="preserve">
<style type="text/css">
	.st0{opacity:0.9;fill:#FFFFFF;enable-background:new    ;}
	.st1{opacity:0.161;fill:#FFFFFF;enable-background:new    ;}
	.st2{fill:#FFFFFF;}
</style>
<g>
	<path id="Rectangle_194" class="st1" d="M6,0h20c3.3,0,6,2.7,6,6v19c0,3.3-2.7,6-6,6H6c-3.3,0-6-2.7-6-6V6C0,2.7,2.7,0,6,0z"/>
	<g>
		<path class="st2" d="M7.5,15.5c0-1.5,0-3,0-4.5c0-1.1,0.4-2,1.2-2.8c0.7-0.7,1.5-1.2,2.5-1.3c0.3,0,0.6,0,0.9,0c2.7,0,5.4,0,8.1,0
			c1.7,0,3,0.8,3.8,2.3c0.3,0.6,0.5,1.2,0.5,1.9c0,2.4,0,4.8,0,7.2c0,0.5,0,1.1,0,1.6c0,2-1.4,3.7-3.4,4.1c-0.5,0.1-0.9,0.1-1.4,0.1
			c-2.2,0-4.4,0-6.6,0c-0.5,0-1.1,0-1.6,0c-1.1-0.1-2-0.5-2.8-1.3c-0.7-0.7-1-1.5-1.2-2.4c0-0.2,0-0.4,0-0.6
			C7.5,18.4,7.5,16.9,7.5,15.5C7.5,15.5,7.5,15.5,7.5,15.5z M8.8,15.5c0,1.3,0,2.5,0,3.8c0,0.7,0.2,1.3,0.6,1.9
			c0.7,1.1,1.7,1.7,3.1,1.7c2.4,0,4.7,0,7.1,0c0.2,0,0.4,0,0.6-0.1c1.7-0.3,2.9-1.8,2.9-3.5c0-2.5,0-4.9,0-7.4c0-0.2,0-0.5-0.1-0.7
			c-0.3-1.7-1.8-2.9-3.5-2.9c-2.4,0-4.8,0-7.2,0c-0.3,0-0.6,0-0.9,0.1c-1.6,0.4-2.6,1.8-2.6,3.4C8.8,13,8.8,14.3,8.8,15.5z"/>
		<path class="st2" d="M11.7,15.5c0-2.4,1.9-4.3,4.3-4.3c2.4,0,4.3,1.9,4.3,4.4c0,2.4-2,4.3-4.4,4.3C13.6,19.8,11.7,17.9,11.7,15.5z
			 M15.8,18.8c0.8,0,1.5-0.2,2-0.6c1.4-1,1.7-2.8,0.9-4.3c-1-1.7-3.3-2.1-4.8-0.8c-0.9,0.8-1.3,1.9-1.1,3.1
			C13.1,17.6,14.5,18.8,15.8,18.8z"/>
		<path class="st2" d="M19.2,11c0-0.7,0.6-1.3,1.3-1.3c0.7,0,1.3,0.6,1.3,1.3c0,0.7-0.6,1.3-1.3,1.3C19.8,12.3,19.2,11.7,19.2,11z"
			/>
	</g>
</g>
</svg>
