<?xml version="1.0" encoding="utf-8"?>
<!-- Generator: Adobe Illustrator 24.1.2, SVG Export Plug-In . SVG Version: 6.00 Build 0)  -->
<svg version="1.1" id="Layer_1" xmlns="http://www.w3.org/2000/svg" xmlns:xlink="http://www.w3.org/1999/xlink" x="0px" y="0px"
	 viewBox="0 0 32 31" style="enable-background:new 0 0 32 31;" xml:space="preserve">
<style type="text/css">
	.st0{opacity:0.9;fill:#FFFFFF;enable-background:new    ;}
	.st1{opacity:0.161;fill:#FFFFFF;enable-background:new    ;}
	.st2{fill:#FFFFFF;}
</style>
<g>
	<path id="Rectangle_195" class="st1" d="M6,0h20c3.3,0,6,2.7,6,6v19c0,3.3-2.7,6-6,6H6c-3.3,0-6-2.7-6-6V6C0,2.7,2.7,0,6,0z"/>
	<path id="Path_325" class="st2" d="M14.9,13.6h-2.6v2.7h2.6v5.5h2.5v-5.5h2.3v-2.7h-2.3c0,0,0,0,0-1.2s0.3-1.8,1.7-1.8
		c0.4,0,0.8,0,1.2,0V8.3c0,0,0.1-0.1-2,0s-3.4,1.3-3.4,3.7S14.9,13.6,14.9,13.6z"/>
</g>
</svg>
