<?xml version="1.0" encoding="utf-8"?>
<!-- Generator: Adobe Illustrator 24.2.0, SVG Export Plug-In . SVG Version: 6.00 Build 0)  -->
<svg version="1.1" id="Layer_1" xmlns="http://www.w3.org/2000/svg" xmlns:xlink="http://www.w3.org/1999/xlink" x="0px" y="0px"
	 viewBox="0 0 32 31" style="enable-background:new 0 0 32 31;" xml:space="preserve">
<style type="text/css">
	.st0{opacity:0.161;fill:#FFFFFF;enable-background:new    ;}
	.st1{fill:#FFFFFF;}
</style>
<g>
	<path id="Rectangle_195_1_" class="st0" d="M6,0h20c3.3,0,6,2.7,6,6v19c0,3.3-2.7,6-6,6H6c-3.3,0-6-2.7-6-6V6C0,2.7,2.7,0,6,0z"/>
	<g>
		<path class="st1" d="M23.3,21.2c-0.9,0-1.9,0-2.8,0c-0.1,0-0.1,0-0.2,0c0-0.1,0-0.1,0-0.2c0-1.6,0-3.3,0-4.9c0-0.3-0.1-0.6-0.2-1
			c-0.2-0.7-0.8-1-1.5-1c-0.8,0-1.3,0.6-1.5,1.2c-0.1,0.2-0.1,0.5-0.1,0.7c0,1.6,0,3.2,0,4.9c0,0.1,0,0.1,0,0.2c-1,0-2,0-3,0
			c0-3.1,0-6.1,0-9.2c1,0,2,0,3,0c0,0.4,0,0.8,0,1.3c0.1-0.1,0.1-0.2,0.2-0.3c0.6-0.9,1.5-1.2,2.6-1.2c0.7,0,1.3,0.1,1.8,0.5
			c0.6,0.4,1,0.9,1.3,1.5c0.2,0.5,0.3,1.1,0.4,1.6c0,0.1,0,0.1,0,0.2C23.3,17.5,23.3,19.3,23.3,21.2z"/>
		<path class="st1" d="M9.3,12c1,0,2,0,3,0c0,3.1,0,6.1,0,9.2c-1,0-2,0-3,0C9.3,18.1,9.3,15.1,9.3,12z"/>
		<path class="st1" d="M10.8,10.8c-0.7,0-1.3-0.2-1.6-0.9c-0.5-1,0.1-2.2,1.3-2.3c0.5,0,0.9,0,1.3,0.3c0.5,0.3,0.8,1,0.6,1.6
			c-0.1,0.6-0.6,1.1-1.3,1.2C11.1,10.8,10.9,10.8,10.8,10.8z"/>
	</g>
</g>
</svg>
