<svg xmlns="http://www.w3.org/2000/svg" width="51.534" height="47.273" viewBox="0 0 51.534 47.273"><g transform="translate(224.733 807)"><g transform="translate(-224.733 -807)"><path d="M48.514,3.6H4.939A3.946,3.946,0,0,0,1,7.539V36.4A3.87,3.87,0,0,0,4.618,40.26H20.456V44.6H15.391a3.135,3.135,0,1,0,0,6.271H38.062a3.135,3.135,0,1,0,0-6.271H33.078V40.26H48.594a3.946,3.946,0,0,0,3.939-3.939V7.539A4.069,4.069,0,0,0,48.514,3.6ZM4.939,5.208H48.594a2.333,2.333,0,0,1,2.331,2.331V33.346H19.652l-.161-6.19a1.928,1.928,0,0,1,2.01-2.01A5.683,5.683,0,0,0,24.717,24.1l6.834-5.226a.85.85,0,0,0,.161-1.126l-.4-.563,7.4-4.9a.791.791,0,0,0,.241-1.126.8.8,0,0,0-.4-.322h8.361a.8.8,0,0,0,0-1.608H25.2a.8.8,0,0,0,0,1.608H37.982c-.08,0-.08,0-.161.08L30.344,15.9l-.4-.563a.865.865,0,0,0-1.126-.241L20.3,20.483H14.506a.772.772,0,0,0-.724.563L12.738,23.94h-.322l-1.045-2.894a.772.772,0,0,0-.724-.563,4.873,4.873,0,0,0-4.9,4.9v7.959H2.608V7.539A2.333,2.333,0,0,1,4.939,5.208ZM10,29.97a.76.76,0,0,0-.8.8v2.573H7.351V25.387a3.282,3.282,0,0,1,2.733-3.216l1.045,2.894a.772.772,0,0,0,.724.563h1.528a.772.772,0,0,0,.724-.563l1.045-2.894h5.467a.614.614,0,0,0,.4-.161l8.12-5.226c.08.08.884,1.286.8,1.206l-6.271,4.743a3.761,3.761,0,0,1-2.251.724A3.872,3.872,0,0,0,18.848,24.5,3.574,3.574,0,0,0,17.8,27.156l.161,6.19H10.648V30.774A.616.616,0,0,0,10,29.97ZM39.59,47.737a1.526,1.526,0,0,1-1.528,1.528H15.391a1.526,1.526,0,0,1-1.528-1.528,1.581,1.581,0,0,1,1.528-1.528H38.062A1.478,1.478,0,0,1,39.59,47.737ZM31.47,44.6H21.983V40.26H31.39V44.6Zm17.044-5.949H4.7a2.354,2.354,0,0,1-2.09-2.331V34.954H50.845v1.367A2.333,2.333,0,0,1,48.514,38.653Z" transform="translate(-1 -3.6)"/><g transform="translate(34.892 10.853)"><path d="M55.414,17.1H45.2a.8.8,0,0,0,0,1.608h10.21a.8.8,0,1,0,0-1.608Z" transform="translate(-44.4 -17.1)"/></g><g transform="translate(30.952 16.079)"><path d="M54.454,23.6H40.3a.8.8,0,0,0,0,1.608h14.23a.76.76,0,0,0,.8-.8A.876.876,0,0,0,54.454,23.6Z" transform="translate(-39.5 -23.6)"/></g><g transform="translate(24.682 21.224)"><path d="M52.924,30H32.5a.8.8,0,1,0,0,1.608H52.924a.8.8,0,0,0,0-1.608Z" transform="translate(-31.7 -30)"/></g><g transform="translate(7.477 7.075)"><path d="M14.481,20.761A4.181,4.181,0,1,0,10.3,16.581,4.2,4.2,0,0,0,14.481,20.761Zm0-6.834A2.573,2.573,0,1,1,11.908,16.5,2.59,2.59,0,0,1,14.481,13.928Z" transform="translate(-10.3 -12.4)"/></g></g></g></svg>