<svg xmlns="http://www.w3.org/2000/svg" width="45.795" height="45.448" viewBox="0 0 45.795 45.448"><path d="M43.279,55.055a.629.629,0,0,0-.026-.072.738.738,0,0,0-.145-.214l0,0-4.544-4.544A.755.755,0,0,0,38.026,50H15.3a.755.755,0,0,0-.536.222l-4.544,4.544,0,0a.748.748,0,0,0-.145.214c-.011.023-.017.047-.026.072a.722.722,0,0,0-.04.2c0,.017-.01.03-.01.047v3.03a.757.757,0,0,0,.757.757H42.571a.757.757,0,0,0,.757-.757V55.3c0-.017-.008-.03-.009-.047A.751.751,0,0,0,43.279,55.055Zm-5.566-3.54,3.03,3.03H38.416l-2.164-3.03Zm-3.322,0,2.164,3.03H16.774l2.164-3.03Zm-18.775,0h1.46l-2.164,3.03H12.586Zm26.2,6.06h-30.3V56.06h30.3Z" transform="translate(-3.94 -13.642)"/><path d="M10.332,34.545a.757.757,0,0,0,.757-.757v-3.03A.757.757,0,0,0,10.332,30H5.787a.757.757,0,0,0-.757.757v6.2a2.247,2.247,0,0,0-.757-.139A2.272,2.272,0,1,0,6.545,39.09V34.545Zm-3.787-3.03h3.03V33.03H6.545ZM4.272,39.847a.757.757,0,1,1,.757-.757A.758.758,0,0,1,4.272,39.847Z" transform="translate(-2 -8.791)"/><path d="M54.616,27a3.033,3.033,0,0,0-3.03,3.03,2.99,2.99,0,0,0,.429,1.529l-1.722,1.722,1.071,1.071,1.722-1.722a2.99,2.99,0,0,0,1.529.429,3.03,3.03,0,1,0,0-6.06Zm0,4.545a1.515,1.515,0,1,1,1.515-1.515A1.516,1.516,0,0,1,54.616,31.545Z" transform="translate(-13.713 -8.063)"/><path d="M2.757,12.6h10.6V11.09H12.6V4.272H11.09V11.09H9.575v-5.3H8.06v5.3H6.545V7.3H5.03V11.09H3.515V2H2v9.847A.757.757,0,0,0,2.757,12.6Z" transform="translate(-2 -2)"/><path d="M27.515,14.119a4.633,4.633,0,0,1,.589-2.162,2.736,2.736,0,0,0,1.738.739,1.908,1.908,0,0,0,.7-.135c2.632-1.045,2.984-8.332,3.029-9.782a.758.758,0,0,0-1.085-.706c-.223.108-5.474,2.654-6.051,6.019a3.617,3.617,0,0,0,.6,2.679A6.39,6.39,0,0,0,26,14.119Zm.417-5.769c.286-1.673,2.475-3.328,4.058-4.279-.243,3.323-1,6.685-2,7.082-.305.12-.732-.188-1.029-.458a8.938,8.938,0,0,1,1.285-1.273l-.909-1.212a9.864,9.864,0,0,0-1.29,1.221A2.033,2.033,0,0,1,27.932,8.351Z" transform="translate(-7.821 -2)"/><path d="M35.03,30a3.03,3.03,0,1,0,3.03,3.03A3.033,3.033,0,0,0,35.03,30Zm0,4.545a1.515,1.515,0,1,1,1.515-1.515A1.516,1.516,0,0,1,35.03,34.545Z" transform="translate(-9.276 -8.791)"/><path d="M40.808,33.805a2.268,2.268,0,0,0,0-4.461,7.575,7.575,0,1,0,0,4.461Zm-.416-1.473a.707.707,0,0,1-.138-.028.757.757,0,0,1-.2-.061.671.671,0,0,1-.066-.045.748.748,0,0,1-.15-.116.842.842,0,0,1-.072-.106.779.779,0,0,1-.076-.122.767.767,0,0,1-.056-.28.752.752,0,0,1,.057-.28.727.727,0,0,1,.076-.122.686.686,0,0,1,.072-.106.777.777,0,0,1,.15-.116c.023-.014.042-.033.066-.045a.766.766,0,0,1,.2-.061.688.688,0,0,1,.137-.028.757.757,0,1,1,0,1.515Zm-6.817,5.3A6.06,6.06,0,1,1,39.3,29.59c-.023.013-.045.03-.067.043-.055.033-.109.065-.161.1a2.232,2.232,0,0,0-.257.212c-.03.03-.057.063-.086.094a2.208,2.208,0,0,0-.17.206c-.026.036-.051.07-.075.108a2.274,2.274,0,0,0-.178.327c-.007.017-.011.034-.018.05a2.236,2.236,0,0,0-.1.331c-.008.036-.016.07-.022.107a2.288,2.288,0,0,0-.04.4,2.249,2.249,0,0,0,.041.406c.007.036.014.071.022.107a2.236,2.236,0,0,0,.1.331c.007.017.011.033.017.05a2.24,2.24,0,0,0,.178.327c.023.037.049.072.074.108a2.31,2.31,0,0,0,.17.206c.029.031.055.064.086.094a2.233,2.233,0,0,0,.257.212c.052.037.106.07.161.1.023.014.044.03.067.043A6.1,6.1,0,0,1,33.575,37.634Z" transform="translate(-7.821 -7.336)"/><path d="M22.817,26.817A6.825,6.825,0,0,0,16,20v1.515a5.309,5.309,0,0,1,5.3,5.3Z" transform="translate(-5.395 -6.366)"/><path d="M49,44.817h1.515a5.309,5.309,0,0,1,5.3-5.3V38A6.825,6.825,0,0,0,49,44.817Z" transform="translate(-13.399 -10.731)"/><path d="M3.515,23.545H5.03V22.03H6.545V20.515H5.03V19H3.515v1.515H2V22.03H3.515Z" transform="translate(-2 -6.123)"/><path d="M37.515,16v1.515H36V19.03h1.515v1.515H39.03V19.03h1.515V17.515H39.03V16Z" transform="translate(-10.246 -5.395)"/><rect width="1" height="1" transform="translate(25.795 33.904)"/><rect width="2" height="1" transform="translate(7.795 17.904)"/><rect width="2" height="1" transform="translate(43.795 27.904)"/><path d="M12,40.515a5.309,5.309,0,0,1,5.3,5.3h1.515A6.825,6.825,0,0,0,12,39Z" transform="translate(-4.425 -10.974)"/><path d="M56.877,2h-10.6A2.275,2.275,0,0,0,44,4.272v9.847a2.275,2.275,0,0,0,2.272,2.272h10.6a.757.757,0,0,0,.757-.757V2.757A.757.757,0,0,0,56.877,2Zm-10.6,1.515h9.847V5.03H46.272a.757.757,0,1,1,0-1.515Zm9.847,11.362H46.272a.758.758,0,0,1-.757-.757v-7.7c.065.023.135.036.2.053.043.011.084.025.128.033a2.27,2.27,0,0,0,.427.043h9.847Z" transform="translate(-12.186 -2)"/><rect width="7" height="1" transform="translate(34.795 5.904)"/></svg>