<svg xmlns="http://www.w3.org/2000/svg" width="43.2" height="44.593" viewBox="0 0 43.2 44.593"><g transform="translate(0 0)"><g transform="translate(15.886 5.017)"><path d="M25.5,14.959H36.645a.658.658,0,0,0,.7-.7V8.9a.658.658,0,0,0-.7-.7H25.5a.658.658,0,0,0-.7.7v5.365A.7.7,0,0,0,25.5,14.959Zm.7-5.365h9.755v3.972H26.194Z" transform="translate(-24.8 -8.2)"/></g><g transform="translate(4.529 5.017)"><path d="M15.259,8.2H9.2a.7.7,0,1,0,0,1.394h6.062a.658.658,0,0,0,.7-.7A.7.7,0,0,0,15.259,8.2Z" transform="translate(-8.5 -8.2)"/></g><g transform="translate(4.529 10.382)"><path d="M15.259,15.9H9.2a.7.7,0,1,0,0,1.394h6.062a.7.7,0,1,0,0-1.394Z" transform="translate(-8.5 -15.9)"/></g><g transform="translate(4.738 21.321)"><path d="M9.009,36.129a.674.674,0,0,0,.975,0l1.184-1.184,1.184,1.184a.69.69,0,0,0,.975-.975l-1.184-1.184,1.184-1.184a.69.69,0,0,0-.975-.975l-1.184,1.184L9.984,31.809a.69.69,0,0,0-.975.975l1.184,1.184L9.009,35.153A.672.672,0,0,0,9.009,36.129Z" transform="translate(-8.8 -31.6)"/></g><g transform="translate(4.411 28.219)"><path d="M12.56,41.709l-2.439,2.439-.488-.836a.705.705,0,0,0-1.184.766l.975,1.533a.706.706,0,0,0,1.045.139l3.066-3.066a.69.69,0,0,0-.975-.975Z" transform="translate(-8.331 -41.5)"/></g><g transform="translate(4.738 34.838)"><path d="M13.259,51.209a.674.674,0,0,0-.975,0l-1.115,1.185L9.984,51.209a.69.69,0,1,0-.975.975l1.184,1.184L9.009,54.484a.69.69,0,0,0,.975.975l1.184-1.185,1.184,1.185a.69.69,0,0,0,.975-.975L12.144,53.3l1.184-1.184A.659.659,0,0,0,13.259,51.209Z" transform="translate(-8.8 -51)"/></g><g transform="translate(13.238 16.235)"><path d="M21.7,25.694h7.316a.7.7,0,0,0,0-1.394H21.7a.7.7,0,0,0,0,1.394Z" transform="translate(-21 -24.3)"/></g><g transform="translate(13.238 22.993)"><path d="M29.919,34H21.7a.7.7,0,0,0,0,1.394h8.222a.7.7,0,1,0,0-1.394Z" transform="translate(-21 -34)"/></g><g transform="translate(13.238 29.752)"><path d="M21.7,45.094h4.111a.7.7,0,1,0,0-1.394H21.7a.658.658,0,0,0-.7.7A.7.7,0,0,0,21.7,45.094Z" transform="translate(-21 -43.7)"/></g><g transform="translate(13.238 36.51)"><path d="M35.493,53.4H21.7a.7.7,0,1,0,0,1.394h13.8a.658.658,0,0,0,.7-.7A.7.7,0,0,0,35.493,53.4Z" transform="translate(-21 -53.4)"/></g><g transform="translate(4.551 14.702)"><path d="M12.76,22.309l-2.439,2.439-.488-.836a.705.705,0,1,0-1.184.766l.975,1.533a.706.706,0,0,0,1.045.139l3.066-3.066a.69.69,0,0,0-.975-.975Z" transform="translate(-8.531 -22.1)"/></g><path d="M44.99,32.006,42.9,24.2a2.131,2.131,0,0,0-3.553-1.115,2.134,2.134,0,0,0-3.205-.348,2.167,2.167,0,0,0-1.115-.836.527.527,0,0,1-.279-.07V1.7a.658.658,0,0,0-.7-.7H2.7a.7.7,0,0,0-.7.7V44.9a.658.658,0,0,0,.7.7H34.051a.658.658,0,0,0,.7-.7V40.088a4.574,4.574,0,0,0,3.832.209l2.578-.766h0A6.262,6.262,0,0,0,44.99,32.006ZM33.354,44.2H3.394V2.394H33.354V22.042c-.139.07-.209.139-.348.209l-1.254-4.808a2.157,2.157,0,0,0-3.205-1.394c-.836.488-1.324,1.533-.906,3.066l2.16,8.222c-1.672-1.463-4.947-2.578-5.922-.557a2.588,2.588,0,0,0,.627,2.926h0c5.783,4.6,6.619,7.386,8.779,9.406V44.2Zm7.386-5.992-2.578.766c-2.857.975-4.25-1.324-5.922-3.484-3.344-4.25-5.644-6.41-6.828-6.968a1.246,1.246,0,0,1-.279-1.184c.418-.836,2.926-.279,5.574,2.926a.665.665,0,0,0,.836.209.7.7,0,0,0,.348-.766c-2.23-8.431-3-11.218-3-11.288s-.209-.906.348-1.184a.742.742,0,0,1,1.115.557l1.812,6.9h0a.717.717,0,0,0,.836.488.661.661,0,0,0,.488-.836h0c-.279-1.115,1.254-1.742,1.533-.557l.348,1.254h0a.717.717,0,0,0,.836.488.661.661,0,0,0,.488-.836h0c-.348-1.184,1.254-1.742,1.533-.557l.348,1.254h0a.684.684,0,0,0,1.324-.348h0c-.348-1.254,1.254-1.672,1.533-.557l2.09,7.8A4.749,4.749,0,0,1,40.74,38.207Z" transform="translate(-2 -1)"/></g></svg>